<svg xmlns="http://www.w3.org/2000/svg" viewBox="0 0 900 620" role="img" aria-labelledby="title desc">
  <title id="title">SEM inverse modeling plate</title>
  <desc id="desc">A landfill monitoring grid with SEM transects, concentration points, and inverse-source estimation.</desc>
  <rect width="900" height="620" fill="#d8c7a8"/>
  <g stroke="#273b35" stroke-opacity=".17">
    <path d="M95 145H805M95 225H805M95 305H805M95 385H805M95 465H805"/>
    <path d="M140 110V500M240 110V500M340 110V500M440 110V500M540 110V500M640 110V500M740 110V500"/>
  </g>
  <path d="M130 438 C260 360 335 430 455 340 S620 250 770 302" fill="none" stroke="#201913" stroke-width="5"/>
  <path d="M130 210 C262 292 380 180 492 246 S660 320 770 190" fill="none" stroke="#201913" stroke-width="5"/>
  <g fill="#466f7a">
    <circle cx="210" cy="390" r="12"/>
    <circle cx="310" cy="410" r="8"/>
    <circle cx="430" cy="350" r="16"/>
    <circle cx="560" cy="290" r="11"/>
    <circle cx="690" cy="300" r="18"/>
    <circle cx="260" cy="246" r="10"/>
    <circle cx="520" cy="252" r="14"/>
    <circle cx="705" cy="220" r="9"/>
  </g>
  <circle cx="602" cy="330" r="76" fill="#a86f4d" opacity=".25"/>
  <circle cx="602" cy="330" r="20" fill="#a86f4d"/>
  <path d="M602 330 l88 -62" stroke="#a86f4d" stroke-width="4"/>
  <g font-family="Courier New, monospace" fill="#201913">
    <text x="54" y="76" font-size="24" letter-spacing="5">SEM → EMISSION RATE</text>
    <text x="54" y="108" font-size="13" letter-spacing="3">INVERSE MODELING / SOURCE LOCATION / WHOLE-LANDFILL Q</text>
    <text x="620" y="420" font-size="14" letter-spacing="3">ESTIMATED SOURCE</text>
  </g>
</svg>
