<svg xmlns="http://www.w3.org/2000/svg" viewBox="0 0 900 620" role="img" aria-labelledby="title desc">
  <title id="title">Composting and recycling facility operations plate</title>
  <desc id="desc">A site plan showing waste sorting, recovery stream, residual landfill cell, and facility circulation.</desc>
  <rect width="900" height="620" fill="#d9c5a3"/>
  <g fill="#f2e6d2" stroke="#201913" stroke-width="4">
    <rect x="106" y="150" width="225" height="150"/>
    <rect x="388" y="146" width="170" height="230"/>
    <rect x="610" y="215" width="190" height="155"/>
    <path d="M110 410 H810 V520 H110Z"/>
  </g>
  <path d="M160 336 C250 390 355 360 450 420 S660 490 760 420" fill="none" stroke="#6f7651" stroke-width="16" stroke-linecap="round"/>
  <path d="M160 336 C250 390 355 360 450 420 S660 490 760 420" fill="none" stroke="#f2e6d2" stroke-width="4" stroke-dasharray="16 18"/>
  <g fill="#466f7a">
    <circle cx="220" cy="225" r="28"/>
    <circle cx="472" cy="260" r="28"/>
    <circle cx="705" cy="292" r="28"/>
  </g>
  <g font-family="Courier New, monospace" fill="#201913">
    <text x="54" y="76" font-size="24" letter-spacing="5">SOLID WASTE FACILITY SYSTEMS</text>
    <text x="54" y="108" font-size="13" letter-spacing="3">WASTE CHARACTERIZATION / RECOVERY / RESIDUAL LANDFILL CELL</text>
    <text x="140" y="246" font-size="14" letter-spacing="3">SORTING</text>
    <text x="418" y="292" font-size="14" letter-spacing="3">RECOVERY</text>
    <text x="650" y="404" font-size="14" letter-spacing="3">CELL</text>
  </g>
</svg>
