<svg xmlns="http://www.w3.org/2000/svg" viewBox="0 0 900 620" role="img" aria-labelledby="title desc">
  <title id="title">Landfill methane model comparison chart</title>
  <desc id="desc">A stylized model comparison chart with measured methane emissions and inventory model estimates.</desc>
  <rect width="900" height="620" fill="#d4c2a3"/>
  <g stroke="#201913" stroke-opacity=".14">
    <path d="M100 500H810M100 410H810M100 320H810M100 230H810M100 140H810"/>
    <path d="M100 120V500M240 120V500M380 120V500M520 120V500M660 120V500M800 120V500"/>
  </g>
  <path d="M116 454 C190 350 255 382 322 298 S455 228 530 282 S680 428 790 178" fill="none" stroke="#466f7a" stroke-width="8" stroke-linecap="round"/>
  <path d="M116 420 C210 392 268 330 346 344 S492 240 572 318 S690 378 790 260" fill="none" stroke="#6f7651" stroke-width="4" stroke-dasharray="14 13"/>
  <path d="M116 468 C225 414 320 448 420 354 S610 254 790 342" fill="none" stroke="#a86f4d" stroke-width="4" stroke-dasharray="4 13"/>
  <g fill="#201913">
    <circle cx="116" cy="454" r="7"/>
    <circle cx="322" cy="298" r="7"/>
    <circle cx="530" cy="282" r="7"/>
    <circle cx="790" cy="178" r="7"/>
  </g>
  <g font-family="Courier New, monospace" fill="#201913">
    <text x="54" y="76" font-size="24" letter-spacing="5">METHANE MODEL COMPARISON</text>
    <text x="54" y="108" font-size="13" letter-spacing="3">313 LANDFILLS / GHGRP / IPCC / SWICS / CARB / AFVALZORG</text>
    <text x="610" y="512" font-size="14" letter-spacing="3">MEASURED VS MODELED</text>
  </g>
</svg>
