<svg xmlns="http://www.w3.org/2000/svg" viewBox="0 0 900 620" role="img" aria-labelledby="title desc">
  <title id="title">Landfill hydrology and drainage optimization diagram</title>
  <desc id="desc">A technical editorial diagram showing rainfall, cover moisture, drainage pipes, runoff arrows, and a methane oxidation zone.</desc>
  <defs>
    <linearGradient id="bg" x1="0" x2="1" y1="0" y2="1">
      <stop offset="0" stop-color="#e9dcc5"/>
      <stop offset="1" stop-color="#a9c5ca"/>
    </linearGradient>
    <pattern id="grid" width="38" height="38" patternUnits="userSpaceOnUse">
      <path d="M38 0H0V38" fill="none" stroke="#2b4850" stroke-opacity=".13"/>
    </pattern>
  </defs>
  <rect width="900" height="620" fill="url(#bg)"/>
  <rect width="900" height="620" fill="url(#grid)"/>
  <path d="M0 442 C150 380 280 468 420 406 S700 338 900 388 V620 H0Z" fill="#6f7651" opacity=".22"/>
  <path d="M60 430 C230 355 365 455 512 386 S735 310 850 360" fill="none" stroke="#23353b" stroke-width="4"/>
  <path d="M83 455 C250 404 390 495 548 428 S736 350 840 398" fill="none" stroke="#23353b" stroke-opacity=".36" stroke-width="2"/>
  <path d="M135 415 v-86 m150 55 v-92 m155 80 v-108 m160 72 v-92 m150 58 v-84" stroke="#466f7a" stroke-width="5" stroke-linecap="round"/>
  <g fill="none" stroke="#466f7a" stroke-width="3" stroke-linecap="round">
    <path d="M135 329 l-23 27 m23-27 l24 27"/>
    <path d="M285 292 l-24 28 m24-28 l24 28"/>
    <path d="M440 264 l-24 28 m24-28 l24 28"/>
    <path d="M600 244 l-24 28 m24-28 l24 28"/>
    <path d="M750 318 l-24 28 m24-28 l24 28"/>
  </g>
  <path d="M180 476 H720" stroke="#2f4050" stroke-width="16" stroke-linecap="round"/>
  <path d="M220 476 H685" stroke="#a9d8e6" stroke-width="5" stroke-linecap="round" stroke-dasharray="16 18"/>
  <circle cx="708" cy="476" r="30" fill="#22343a"/>
  <circle cx="708" cy="476" r="16" fill="#a9d8e6"/>
  <path d="M300 386 C365 330 455 334 515 384 C452 406 365 407 300 386Z" fill="#a86f4d" opacity=".34"/>
  <path d="M322 381 C380 350 448 350 499 380" fill="none" stroke="#6f7651" stroke-width="5" stroke-linecap="round"/>
  <g font-family="Courier New, monospace" fill="#201913">
    <text x="52" y="76" font-size="24" letter-spacing="5">STORMWATER INFILTRATION</text>
    <text x="52" y="108" font-size="13" letter-spacing="3">DRAINAGE NETWORK + COVER MOISTURE + METHANE OXIDATION</text>
    <text x="620" y="532" font-size="16" letter-spacing="3">UNDERDRAIN FLOW</text>
  </g>
</svg>
