<svg xmlns="http://www.w3.org/2000/svg" viewBox="0 0 900 620" role="img" aria-labelledby="title desc">
  <title id="title">Drainage and sewerage network design plate</title>
  <desc id="desc">A Civil 3D style plan with drainage nodes, pipe reaches, contour lines, and sewer discharge routing.</desc>
  <defs>
    <pattern id="grid" width="32" height="32" patternUnits="userSpaceOnUse">
      <path d="M32 0H0V32" fill="none" stroke="#1b3f4b" stroke-opacity=".12"/>
    </pattern>
  </defs>
  <rect width="900" height="620" fill="#d8c7a8"/>
  <rect width="900" height="620" fill="url(#grid)"/>
  <g fill="none" stroke="#6f7651" stroke-opacity=".5">
    <path d="M-40 500 C140 418 235 508 394 430 S670 342 940 430"/>
    <path d="M-40 444 C160 372 260 456 410 385 S682 300 940 376"/>
    <path d="M-40 388 C168 316 278 410 430 342 S700 250 940 322"/>
  </g>
  <g stroke="#23353b" stroke-width="9" stroke-linecap="round" fill="none">
    <path d="M120 150 L260 224 L410 184 L570 292 L742 238"/>
    <path d="M260 224 L258 388 L426 478 L640 434"/>
    <path d="M570 292 L638 434"/>
  </g>
  <g fill="#e9f1ee" stroke="#23353b" stroke-width="5">
    <circle cx="120" cy="150" r="22"/>
    <circle cx="260" cy="224" r="22"/>
    <circle cx="410" cy="184" r="22"/>
    <circle cx="570" cy="292" r="22"/>
    <circle cx="742" cy="238" r="22"/>
    <circle cx="258" cy="388" r="22"/>
    <circle cx="426" cy="478" r="22"/>
    <circle cx="640" cy="434" r="22"/>
  </g>
  <g fill="#a86f4d">
    <rect x="92" y="330" width="88" height="58"/>
    <rect x="680" y="360" width="118" height="78"/>
    <rect x="360" y="260" width="92" height="64"/>
  </g>
  <g font-family="Courier New, monospace" fill="#201913">
    <text x="54" y="76" font-size="24" letter-spacing="5">DRAINAGE + SEWERAGE NETWORK</text>
    <text x="54" y="108" font-size="13" letter-spacing="3">GOLDEN HILLS MIXED DEVELOPMENT / AUTODESK SSA</text>
    <text x="620" y="510" font-size="14" letter-spacing="3">OUTFALL CHECK</text>
  </g>
</svg>
