<svg xmlns="http://www.w3.org/2000/svg" viewBox="0 0 900 620" role="img" aria-labelledby="title desc">
  <title id="title">Leachate and water treatment monitoring diagram</title>
  <desc id="desc">A process schematic showing leachate flow, filters, reverse osmosis, effluent monitoring, and lab analysis.</desc>
  <rect width="900" height="620" fill="#e5d6bc"/>
  <path d="M0 455 C180 400 300 470 482 420 S720 360 900 405 V620 H0Z" fill="#466f7a" opacity=".16"/>
  <g fill="none" stroke="#24373d" stroke-width="5">
    <path d="M90 310 H230"/>
    <path d="M300 310 H438"/>
    <path d="M508 310 H650"/>
    <path d="M720 310 H808"/>
  </g>
  <g fill="#f6efe1" stroke="#24373d" stroke-width="5">
    <rect x="90" y="230" width="140" height="160"/>
    <rect x="300" y="210" width="140" height="200"/>
    <rect x="508" y="230" width="140" height="160"/>
    <circle cx="760" cy="310" r="58"/>
  </g>
  <g fill="#466f7a" opacity=".75">
    <rect x="112" y="296" width="96" height="54"/>
    <rect x="322" y="250" width="96" height="122"/>
    <rect x="530" y="278" width="96" height="72"/>
  </g>
  <path d="M98 456 H802" stroke="#6f7651" stroke-width="3" stroke-dasharray="8 14"/>
  <g font-family="Courier New, monospace" fill="#201913" text-anchor="middle">
    <text x="160" y="430" font-size="16" letter-spacing="3">LEACHATE</text>
    <text x="370" y="430" font-size="16" letter-spacing="3">RO</text>
    <text x="578" y="430" font-size="16" letter-spacing="3">EFFLUENT</text>
    <text x="760" y="430" font-size="16" letter-spacing="3">LAB QA</text>
  </g>
  <g font-family="Courier New, monospace" fill="#201913">
    <text x="54" y="76" font-size="24" letter-spacing="5">FLOW + EFFLUENT MONITORING</text>
    <text x="54" y="108" font-size="13" letter-spacing="3">LEACHATE RATE / RO TREATMENT / MICROBIAL ANALYSIS</text>
  </g>
</svg>
